<svg width="84" height="84" viewBox="0 0 84 84" fill="none" xmlns="http://www.w3.org/2000/svg">
<rect x="1" y="1" width="82" height="82" rx="41" fill="white"/>
<rect x="1" y="1" width="82" height="82" rx="41" stroke="#A62014" stroke-width="2"/>
<path d="M70 73.5V66.5C70 62.787 68.525 59.226 65.8995 56.6005C63.274 53.975 59.713 52.5 56 52.5H28C24.287 52.5 20.726 53.975 18.1005 56.6005C15.475 59.226 14 62.787 14 66.5V73.5M56 24.5C56 32.232 49.732 38.5 42 38.5C34.268 38.5 28 32.232 28 24.5C28 16.768 34.268 10.5 42 10.5C49.732 10.5 56 16.768 56 24.5Z" stroke="#A62014" stroke-width="2" stroke-linecap="round" stroke-linejoin="round"/>
</svg>
